<?xml version="1.0" standalone="no"?>
<!DOCTYPE svg PUBLIC "-//W3C//DTD SVG 20010904//EN"
 "http://www.w3.org/TR/2001/REC-SVG-20010904/DTD/svg10.dtd">
<svg version="1.0" xmlns="http://www.w3.org/2000/svg"
 width="600.000000pt" height="600.000000pt" viewBox="0 0 600.000000 600.000000"
 preserveAspectRatio="xMidYMid meet">
<metadata>
Created by potrace 1.13, written by Peter Selinger 2001-2015
</metadata>
<g transform="translate(0.000000,600.000000) scale(0.100000,-0.100000)"
fill="#000000" stroke="none">
<path d="M2925 5846 c-138 -63 -156 -257 -33 -342 36 -25 50 -29 113 -29 63 0
77 4 113 29 109 75 109 247 1 322 -49 33 -144 44 -194 20z"/>
<path d="M2205 5756 c-138 -63 -156 -257 -33 -342 36 -25 50 -29 113 -29 63 0
77 4 113 29 109 75 109 247 1 322 -49 33 -144 44 -194 20z"/>
<path d="M3605 5756 c-138 -63 -156 -257 -33 -342 36 -25 50 -29 113 -29 63 0
77 4 113 29 109 75 109 247 1 322 -49 33 -144 44 -194 20z"/>
<path d="M1605 5496 c-138 -63 -156 -257 -33 -342 36 -25 50 -29 113 -29 63 0
77 4 113 29 109 75 109 247 1 322 -49 33 -144 44 -194 20z"/>
<path d="M4245 5496 c-138 -63 -156 -257 -33 -342 36 -25 50 -29 113 -29 63 0
77 4 113 29 109 75 109 247 1 322 -49 33 -144 44 -194 20z"/>
<path d="M2835 5260 c-1179 -86 -2095 -1072 -2095 -2255 0 -598 239 -1176 659
-1595 365 -364 816 -584 1331 -651 52 -6 174 -12 270 -12 190 0 304 12 475 48
1039 222 1785 1145 1785 2210 0 904 -543 1727 -1370 2078 -332 141 -700 203
-1055 177z m-456 -380 c57 -29 212 -188 326 -333 55 -71 120 -154 145 -185
200 -253 808 -1158 797 -1186 -5 -12 -327 -220 -332 -214 -19 23 -271 437
-375 613 -238 406 -323 567 -513 965 -81 170 -129 360 -91 360 3 0 22 -9 43
-20z m1086 -534 c179 -37 265 -61 345 -99 30 -14 75 -34 100 -44 56 -24 187
-112 257 -171 60 -50 124 -136 174 -232 30 -56 34 -74 37 -155 4 -94 -1 -111
-49 -195 -56 -97 -249 -224 -465 -305 -79 -30 -100 -34 -106 -24 -110 190
-771 1182 -830 1246 l-20 22 58 3 c124 6 339 -14 499 -46z m-990 -58 c7 -18
32 -66 55 -107 l42 -74 -26 -51 c-46 -91 -25 -224 46 -293 44 -43 137 -84 182
-81 19 1 37 0 39 -2 3 -3 26 -43 52 -90 26 -47 58 -100 71 -119 l23 -34 -62
-67 c-98 -106 -135 -236 -92 -320 18 -35 69 -79 115 -98 48 -20 187 -11 258
16 l52 20 36 -56 c20 -32 71 -95 113 -142 112 -126 112 -125 122 -167 4 -21 9
-92 9 -158 1 -97 -3 -131 -19 -178 -33 -93 -77 -162 -147 -226 -260 -238 -685
-322 -1099 -218 -371 94 -748 387 -923 717 -184 347 -128 771 151 1140 123
162 369 366 567 472 65 35 232 102 325 131 78 24 94 22 110 -15z m1290 -1346
c38 -97 87 -213 108 -257 21 -44 57 -125 79 -180 22 -55 42 -105 45 -112 3 -7
-20 -28 -52 -49 l-58 -36 -36 38 c-21 22 -73 82 -116 134 -44 52 -105 122
-136 155 -31 33 -99 108 -152 166 l-97 107 168 106 c92 58 169 105 172 106 3
0 36 -80 75 -178z m385 -648 c63 -34 150 -125 184 -192 41 -81 56 -156 63
-312 4 -108 10 -155 23 -182 10 -21 14 -38 9 -38 -21 0 -140 51 -180 76 -143
92 -231 186 -295 317 -40 83 -57 154 -52 227 l3 55 70 46 c79 52 85 52 175 3z"/>
<path d="M3710 3971 c-87 -27 -153 -92 -179 -176 -29 -95 -18 -151 48 -242 47
-64 99 -88 196 -88 69 0 86 4 126 27 90 53 131 123 131 227 1 113 -45 184
-154 236 -53 25 -116 31 -168 16z"/>
<path d="M1904 3761 c-80 -21 -163 -98 -184 -172 -13 -44 -13 -125 1 -172 12
-44 68 -111 113 -134 154 -81 334 -9 381 153 38 130 -14 243 -142 308 -38 19
-126 28 -169 17z"/>
<path d="M1962 2875 c-180 -81 -222 -296 -86 -429 62 -60 89 -71 181 -71 78 0
83 1 139 40 78 54 119 129 117 217 -3 95 -41 160 -133 223 -33 23 -54 29 -113
32 -50 2 -82 -1 -105 -12z"/>
<path d="M2785 2609 c-60 -14 -134 -75 -168 -139 -27 -50 -29 -61 -24 -128 6
-83 36 -145 90 -186 148 -112 354 -55 412 113 52 153 -35 306 -193 340 -59 12
-61 12 -117 0z"/>
<path d="M1045 5066 c-138 -63 -156 -257 -33 -342 36 -25 50 -29 113 -29 63 0
77 4 113 29 109 75 109 247 1 322 -49 33 -144 44 -194 20z"/>
<path d="M4795 5066 c-138 -63 -156 -257 -33 -342 36 -25 50 -29 113 -29 63 0
77 4 113 29 109 75 109 247 1 322 -49 33 -144 44 -194 20z"/>
<path d="M605 4496 c-138 -63 -156 -257 -33 -342 36 -25 50 -29 113 -29 63 0
77 4 113 29 109 75 109 247 1 322 -49 33 -144 44 -194 20z"/>
<path d="M5225 4496 c-138 -63 -156 -257 -33 -342 36 -25 50 -29 113 -29 63 0
77 4 113 29 109 75 109 247 1 322 -49 33 -144 44 -194 20z"/>
<path d="M355 3876 c-138 -63 -156 -257 -33 -342 36 -25 50 -29 113 -29 63 0
77 4 113 29 109 75 109 247 1 322 -49 33 -144 44 -194 20z"/>
<path d="M5485 3876 c-138 -63 -156 -257 -33 -342 36 -25 50 -29 113 -29 63 0
77 4 113 29 109 75 109 247 1 322 -49 33 -144 44 -194 20z"/>
<path d="M265 3186 c-138 -63 -156 -257 -33 -342 36 -25 50 -29 113 -29 63 0
77 4 113 29 109 75 109 247 1 322 -49 33 -144 44 -194 20z"/>
<path d="M5575 3186 c-138 -63 -156 -257 -33 -342 36 -25 50 -29 113 -29 63 0
77 4 113 29 109 75 109 247 1 322 -49 33 -144 44 -194 20z"/>
<path d="M355 2506 c-138 -63 -156 -257 -33 -342 36 -25 50 -29 113 -29 63 0
77 4 113 29 109 75 109 247 1 322 -49 33 -144 44 -194 20z"/>
<path d="M5485 2506 c-138 -63 -156 -257 -33 -342 36 -25 50 -29 113 -29 63 0
77 4 113 29 109 75 109 247 1 322 -49 33 -144 44 -194 20z"/>
<path d="M615 1866 c-138 -63 -156 -257 -33 -342 36 -25 50 -29 113 -29 63 0
77 4 113 29 109 75 109 247 1 322 -49 33 -144 44 -194 20z"/>
<path d="M5225 1866 c-138 -63 -156 -257 -33 -342 36 -25 50 -29 113 -29 63 0
77 4 113 29 109 75 109 247 1 322 -49 33 -144 44 -194 20z"/>
<path d="M1045 1306 c-138 -63 -156 -257 -33 -342 36 -25 50 -29 113 -29 63 0
77 4 113 29 109 75 109 247 1 322 -49 33 -144 44 -194 20z"/>
<path d="M4795 1306 c-138 -63 -156 -257 -33 -342 36 -25 50 -29 113 -29 63 0
77 4 113 29 109 75 109 247 1 322 -49 33 -144 44 -194 20z"/>
<path d="M1575 886 c-138 -63 -156 -257 -33 -342 36 -25 50 -29 113 -29 63 0
77 4 113 29 109 75 109 247 1 322 -49 33 -144 44 -194 20z"/>
<path d="M4245 886 c-138 -63 -156 -257 -33 -342 36 -25 50 -29 113 -29 63 0
77 4 113 29 109 75 109 247 1 322 -49 33 -144 44 -194 20z"/>
<path d="M2205 626 c-138 -63 -156 -257 -33 -342 36 -25 50 -29 113 -29 63 0
77 4 113 29 109 75 109 247 1 322 -49 33 -144 44 -194 20z"/>
<path d="M3605 626 c-138 -63 -156 -257 -33 -342 60 -42 166 -42 226 0 109 75
109 247 1 322 -49 33 -144 44 -194 20z"/>
<path d="M2925 526 c-138 -63 -156 -257 -33 -342 36 -25 50 -29 113 -29 63 0
77 4 113 29 109 75 109 247 1 322 -49 33 -144 44 -194 20z"/>
</g>
</svg>
